# xmcd
#
# Track frame offsets:
#	150
#	17552
#	34699
#	50775
#	70346
#	91068
#	108253
#
# Disc length: 1644 seconds
#
# Revision: 0
# Processed by: cddbd v1.5.1PL0 Copyright (c) Steve Scherf et al.
# Submitted via: dBpowerAMP V4.0
#
DISCID=52066a07
DTITLE=ESTILO LIBRE - MAQUETA
DYEAR=2005
DGENRE=
TTITLE0=01 BANDOLERA
TTITLE1=02 OYE (vers. reggaeton)
TTITLE2=03 DAME TU AMOR
TTITLE3=04 RECUERDOS
TTITLE4=05 DAME UNA RAZÓN
TTITLE5=06 CON MI GENTE
TTITLE6=07 MUEVE TUS CADERAS
EXTD=MAQUETA
EXTT0=
EXTT1=
EXTT2=
EXTT3=
EXTT4=
EXTT5=
EXTT6=
PLAYORDER=
